<?xml version="1.0" encoding="UTF-8"?>
<svg width="789px" height="480px" viewBox="0 0 789 480" version="1.1" xmlns="http://www.w3.org/2000/svg" xmlns:xlink="http://www.w3.org/1999/xlink">
    <!-- Generator: Sketch 50.2 (55047) - http://www.bohemiancoding.com/sketch -->
    <title>Group</title>
    <desc>Created with Sketch.</desc>
    <defs></defs>
    <g id="Screens" stroke="none" stroke-width="1" fill="none" fill-rule="evenodd">
        <g id="Desktop-HD" transform="translate(-326.000000, -311.000000)">
            <g id="Group" transform="translate(326.000000, 311.000000)">
                <g id="Planet" transform="translate(0.000000, 380.000000)">
                    <circle id="Oval-4" fill="#846A54" cx="50" cy="50" r="50"></circle>
                    <path d="M11.317275,81.682725 C4.24462834,73.0576094 0,62.0244977 0,50 C0,22.3857625 22.3857625,0 50,0 C62.0244977,0 73.0576094,4.24462834 81.682725,11.317275 C88.7553717,19.9423906 93,30.9755023 93,43 C93,70.6142375 70.6142375,93 43,93 C30.9755023,93 19.9423906,88.7553717 11.317275,81.682725 Z" id="Combined-Shape" fill="#BC9575"></path>
                </g>
                <g id="Planet" transform="translate(589.000000, 0.000000)">
                    <circle id="Oval-4" fill="#5E8454" cx="100" cy="100" r="100"></circle>
                    <path d="M22.6345501,163.36545 C8.48925667,146.115219 0,124.048995 0,100 C0,44.771525 44.771525,0 100,0 C124.048995,0 146.115219,8.48925667 163.36545,22.6345501 C177.510743,39.8847813 186,61.9510046 186,86 C186,141.228475 141.228475,186 86,186 C61.9510046,186 39.8847813,177.510743 22.6345501,163.36545 Z" id="Combined-Shape" fill="#75BC76"></path>
                </g>
            </g>
        </g>
    </g>
</svg>